<?xml version="1.0" encoding="utf-8"?>
<!-- Generator: Adobe Illustrator 28.0.0, SVG Export Plug-In . SVG Version: 6.00 Build 0)  -->
<svg version="1.1" id="Lager_1" xmlns="http://www.w3.org/2000/svg" xmlns:xlink="http://www.w3.org/1999/xlink" x="0px" y="0px"
	 viewBox="0 0 2000 2000" style="enable-background:new 0 0 2000 2000;" xml:space="preserve">
<style type="text/css">
	.st0{fill:#A91917;}
</style>
<g>
	<g>
		<path class="st0" d="M178.4,1815.5v-3.7c8.5-2.6,11.4-9.1,11.4-32.4v-126.9c0-23.3-2.8-29.9-11.4-32.4v-3.7h68
			c78.2,0,109,49.8,109.2,95.9c0.3,60-40.1,103.3-102.7,103.3H178.4z M329.8,1723.6c0-56.9-33.9-103-97.3-103h-19.3v169.8
			c0,13.4,2.8,20.8,18.5,20.8h20.8C302.2,1811.2,329.8,1783,329.8,1723.6z"/>
		<path class="st0" d="M380.4,1748.6c0-46.4,35-77.4,74.8-77.4c35.8,0,56.6,23.3,57.5,50.4H401.5c-0.6,4.3-0.9,8.5-0.9,13.1
			c0,39,24.2,65.7,61.2,65.7c21.9,0,37.6-10,50.6-24.7l2.6,2.6c-14.5,19.9-36.7,40.1-67.1,40.1
			C416.5,1818.3,380.4,1795.6,380.4,1748.6z M489.9,1717.9c-2.8-19.1-18.2-41.5-44.1-41.5c-24.2-0.3-39,17.6-43.5,41.5H489.9z"/>
		<path class="st0" d="M535.4,1805l-2.6-34.4l2.6-0.6c11.9,27,32.1,43.2,58,43.5c17.6,0,30.7-10.5,30.7-26.5
			c0-20.5-19.9-27-41.8-34.1c-27-8.5-46.4-15.9-46.4-41.8c0-22.5,18.8-39.8,51.8-39.8c18.5,0,35.3,4,44.1,7.7l1.1,29l-2.8,0.6
			c-9.1-20.5-27.3-33.6-47.5-33.6c-19.3,0-31.9,9.4-31.9,23.9c0,17.9,18.2,25.3,40.7,32.7c21.6,7.1,47.8,13.7,47.8,42.1
			c0,23.9-17.9,44.1-52.1,44.4C564.4,1818,544.8,1811.2,535.4,1805z"/>
		<path class="st0" d="M663.7,1638c0-9.1,6.8-15.9,15.6-15.9c9.1,0,15.6,6.8,15.6,15.9c0,8.5-6.8,15.6-15.6,15.6
			C670.5,1653.6,663.7,1646.5,663.7,1638z"/>
		<path class="st0" d="M717.8,1859.3c0-17.9,14.5-32.4,37.6-46.4c-12.8-3.1-20.8-9.1-20.8-21.3c0-10.5,9.4-17.6,20.8-25
			c-14.2-7.4-25-20.5-25-41.5c0-29.9,27-53.8,56.3-53.8c6.8,0,14.2,0.9,20.8,2.8c2.8-3.7,6.3-7.4,10-10.2
			c8.5-7.7,18.8-12.8,32.4-12.8c8.8,0,14.8,2.6,14.8,6.8c0,4.8-6,14.5-16.2,14.5c-7.1,0-15.4-2.6-28.2-6.5c-3.1,2.3-6.3,5.7-9.1,9.7
			c17.4,6.3,31.6,20.2,31.6,44.7c0,32.7-32.7,53.5-56,53.5c-8.8,0-18.8-1.7-27.6-5.4c-6.3,4.3-10.2,7.1-10.2,12.5
			c0.3,7.7,9.7,12.2,31.3,13.4l35.8,2.3c28.7,1.7,45.5,5.7,45.5,27.9c0,32.4-50.4,70-97.3,70
			C742.5,1894.3,717.8,1884.9,717.8,1859.3z M780.3,1881.5c36.4,0,70-22.8,70-45.2c0-13.4-11.1-17.4-34.7-18.8l-39.8-2
			c-5.7-0.3-11.1-0.9-16.2-1.7c-16.5,11.1-22.8,22.8-22.8,35C736.8,1869.2,753.9,1881.5,780.3,1881.5z M822.2,1733
			c0-25.6-16.5-58.9-42.4-57.5c-20.2,0.9-28.7,17.1-28.7,37c0,24.7,14.8,56.6,41,56.6C813.1,1769.1,822.2,1752.3,822.2,1733z"/>
		<path class="st0" d="M871.4,1811.8c8.8-2.6,11.4-9.1,11.4-32.4v-65.4c0-19.9-3.4-22.8-11.4-26.2v-3.1l31.3-13.7l2.3,2v24.5
			c16.5-13.4,38.4-26.2,60.3-26.2c27.9,0,44.9,16.2,44.9,49.5v58.6c0,23.3,2.6,29.9,11.4,32.4v3.7h-44.9v-3.7
			c8.8-2.6,11.4-9.1,11.4-32.4v-52.9c0-29.6-12.5-45.8-37.6-45.8c-15.6,0-31,9.4-45.5,21.3v77.4c0,23.3,2.8,29.9,11.4,32.4v3.7
			h-44.9V1811.8z"/>
		<path class="st0" d="M1102.6,1815.5v-3.7c8.5-2.6,11.4-9.1,11.4-32.4v-126.9c0-23.3-2.8-29.9-11.4-32.4v-3.7h66.6
			c43.8,0,61.7,14.5,61.7,37.6c0,19.3-12.5,37-44.9,43c46.4,2.3,66.9,25.3,67.1,53.2c0.6,31.9-23.3,65.4-92.5,65.4H1102.6z
			 M1205,1659c0-23.6-16.8-38.4-46.1-38.4h-21.6v75.7h26.5C1191.9,1696.3,1205,1679.8,1205,1659z M1227.2,1757.2
			c0-32.7-18.2-56.6-60.9-56.6h-29v85.9c0,20.5,2.6,24.7,14.8,24.7h11.1C1209.6,1811.2,1227.2,1788.7,1227.2,1757.2z"/>
		<path class="st0" d="M1248.4,1846.3c0-5.4,4.5-9.6,15.1-9.6c6.7,0,19.2,11.8,31.2,15.6c2.1,0.7,4.5,0.3,6.1-1.3
			c9-8.6,16.9-21.5,23.5-35.1l-46.7-109.5c-8.8-21.3-15.9-27-21.9-29.6v-3.7h43v3.7c-8.5,2.6-6.3,8.2,2.8,29.6l35,81.4l35-81.4
			c8-18.5,7.4-27.6-2.6-29.6v-3.7h31.6v3.7c-8,2.6-15.4,8.2-24.7,29.6l-44.1,101.8c-24.2,55.8-43.9,55.8-54.9,52.3
			C1266.4,1857.3,1248.4,1850.9,1248.4,1846.3z"/>
		<path class="st0" d="M659.2,1811.8c8.8-2.6,11.4-9.1,11.4-32.4v-65.4c0-19.9-3.4-22.8-11.4-26.2v-3.1c14.4,1.1,28.8,1.1,31.3-13.7
			l2.3,2v106.4c0,23.3,2.8,29.9,11.4,32.4v3.7h-44.9V1811.8z"/>
		<g>
			<path class="st0" d="M1209.3,1755.5c-23.4,2.6-25.5,4.8-28.1,28.1c-2.6-23.4-4.8-25.5-28.1-28.1c23.4-2.6,25.5-4.8,28.1-28.1
				C1183.8,1750.8,1185.9,1752.9,1209.3,1755.5z"/>
		</g>
		<g>
			<path class="st0" d="M294.9,1721c-23.4,2.6-25.5,4.8-28.1,28.1c-2.6-23.4-4.8-25.5-28.1-28.1c23.4-2.6,25.5-4.8,28.1-28.1
				C269.4,1716.2,271.5,1718.3,294.9,1721z"/>
		</g>
	</g>
	<g>
		<path class="st0" d="M929,1397.1l7.9,0.1c2.6,4.1,2.1,10.1,2.2,15.1l-0.2,1.2c-0.2,2.6,1.1,5.4,1.9,7.8l-0.5,1.6
			c-1.4,5.8-1.2,14.3,2,19.4c2.5,0.7,4.6,1.8,7.1,1.2c6.2-1.6,17.5,1.4,22.4-2.2c0-4.9,0.5-4,2.3-8c1.8-4.2-1.8-10.5,1.1-14.9
			c0-3.1-0.6-5.4,1.1-8l-1.1-1.7l0.6-1.4c1-3.1-0.7-8.7,2.3-10l6.2-0.9c-0.2,14.3,0,28.7-1.1,42.9c-0.5,6.8-2.1,13.4-2.7,20.1
			c-0.9,10.1-0.9,20.3-3,30.3c-1,4.9-2,14-6.9,16.4c-8.7,4.3-18.9,2.3-27.8,0.3c-2-2.2-4.1-4.7-5-7.6c-1.8-5.7-1.7-12.4-2.6-18.4
			C931.1,1452.8,930.5,1425,929,1397.1z"/>
		<path class="st0" d="M1363.6,1268.6l0.9-0.3c2.5,0.6,4.6,0.5,7.1,0.5c2.3,1.5,3,1.1,5.7,1.1c2.3,1.5,3,1.1,5.7,1.1l1.7,1.1
			c15.2,0.2,31.8,0.8,46.5-3.6c8.2-2.4,15.6-3.8,23.5-7.5c3.1-1.5,4.6-1.9,8-1.8c2.7,4.2,1.8,9,2.4,13.9c2,14.8,3.5,29.5,4.1,44.4
			c0.5,12.2-0.1,25.2,1.8,37.3c2.5,15.9,3,32.1,3.9,48.2l4.5,62c0.7,9.5,3.2,18.8,3.9,28.3c0.9,11.4-1,25,1.9,35.9
			c4.2,15.8,3.2,32.1,4.7,48.2l7.6,68.2l1.8,30.4c0.7,7.1,2.8,14.1,3.6,21.2l2.3,32.4c0.7,7.2,2.7,14.3,3.6,21.5l4.1,43
			c0.6,4.5,2.4,8.5,3.2,12.8l3.7,25.5c0.3,2.8,1,7.5,0.6,10.2l-0.2,1.2c0.1,3.6-0.7,7.5-0.4,11c0.4,3.6,2.6,6.1,3.6,9.4
			c0.8,2.4,0,6.3-0.1,8.9c4.2,2.1,7.7,2.4,12.4,2.4c6.3,0.1,13.7,1.1,18.5-3.5l0-12.1l1.1-1.7c-1.1-1.8-1-3.1-1.1-5.2
			c2.4-3.6,1.1-12.6,1.1-17.2c1.6-1.7,1.1-1.8,1.1-4l-1.1-1.7c0.2-4.2,1.6-7.9,2.2-12c2.3-16.8,2.3-35.7,2.1-52.7l-3.2-85.2
			l-1.1-63.9l-3.2-46.6l-5.8-210.1c-0.3-7.6-1.8-15-2.2-22.7l-2.2-84.1c-0.1-8.2-2.5-25.6,1.4-32.6c2.6-2.3,4.5-3.9,8-4.7
			c1.9-0.4,3.2-0.6,4.9-1.8c2.4-1.7,5.2-1.1,8-1.1c-5.7,2.7-12.4,4.9-17.1,9.2c-3,10.6-0.1,27.6,0.4,38.8l1.7,54.3l4.4,123.7
			l6.7,207.3l5,123.1l1.4,53.9l-2.3,40c-1,10.5-0.6,19.6-7.3,28.4c-8.3,4-18.6,7.5-27.7,4.2c-5-1.8-8.3-4.1-10.3-9.1
			c-2.6-6.4-3.1-14.3-4.3-21.1c-5.5-31-6.8-62.3-10.1-93.6l-25-258.8l-7.8-78.8l-9.2-124.4c-1.2-15.6-0.2-32.1-2.6-47.5
			c-6.7,2.7-13.8,6.1-20.8,7.9c-24.3,6.4-51,6.2-75.2-0.3L1363.6,1268.6z"/>
		<path class="st0" d="M774.7,941.5c-12.3-8.9-24.3-18.5-35.8-28.4c-0.1-0.2-0.3-0.4-0.5-0.6c-3.1-2.9-6.7-6.6-9.4-10
			c-7.5-9.2-13.8-20.4-18.7-31c-7.2-15.6-11.1-30.5-15.4-47.2c-3-11.6-6.9-31.4-14.7-40.3c-4.1-2.1-6.1-2.2-10.7-1.6
			c-2.2,1.4-4.6,2.6-5.4,5.2c-2.7,8.8-2.3,19.8-4.6,29.1c-9.3,37.8-26.9,73.6-50,104.9c-8,10.8-15.2,23.9-24.5,33.5
			c-4.9,5-16.3,13.4-18.4,20c-0.8,2.7-0.5,6.1,1,8.3c4.9,7.5,15.9,7.2,23.3,10.2c4.4,1.8,9.4,5.3,13,8.4
			c9.3,8.2,14.3,18.4,19.8,29.3c20.6,41.1,29,84.6,36.6,129.5c1.6,4.3,4.5,12.4,6.7,15.3c5,6.4,9,7.6,11.5,8.3c1,0,1.9,0,2.9,0
			c14,0.1,25.8-10.9,26.5-24.9c0.2-3.8,0.2-7.7,0.3-11.8c0.2-26,4.7-47.9,7.8-78.7c0.8-18,7.5-33.5,17.5-52.5
			c22.5-46.5,60-32.2,61.5-52.3C795.8,953.4,783.5,947.9,774.7,941.5z M721.5,970.7c-9.6,10.5-18.2,23.2-23.9,36.9
			c-3.6,8.5-6.9,17.7-9.6,26.6c-2.1,7.2-1.5,14.5-6.3,19.9l-3.4-1c-4.2-3.6-6.5-14-9.1-19.5c-5.4-11.2-12.9-24.9-20.8-33.8
			c-7.9-8.9-16.7-13.7-25.7-19.8c-2.6-1.7-3.2-5.3-1.4-7.8c7.1-9.8,16.1-16.9,23.8-26.2c11.5-13.9,18.7-28.4,27.4-44.4l2.4-0.4
			l1.7,2.4c8.3,14.3,18.2,23.5,29.9,34.1c7,6.2,9.2,6.9,19.5,14c0,0,4.4,3.5,4.6,3.9C732.6,961.4,725.5,966.2,721.5,970.7z
			 M745.8,921.2l11.6,11.1C753.3,928.6,749.3,924.8,745.8,921.2z"/>
		<path class="st0" d="M929,1397.1c-3.3-34.1-2-69.7-2.1-104l-0.5-148.4l8.9-372l9.2-220.5l5.5-111.3c0.9-15.2,0-32,3.2-46.8
			l2.4-10.8c2.9-3.7,6.4-7.5,10.6-9.6c15.1-7.4,38-8.7,53.9-3.2c9.6,3.4,16.8,8.1,22.3,16.9c8.4,13.5,11.4,29.3,16.1,44.2
			c17.9,56.2,27.4,116,39,173.7l36.8,185.8c5.6,26.7,6.9,57.2,18.7,81.9l15.3-56.1l15.1-56.2l28.4-103.9l24.7-86.9
			c2.8-9.6,4.6-20.9,8.4-30c3.4-8.4,5.8-18.1,7.8-27c3.3-14.6,9.1-29.1,13.5-43.4l23.6-76.3l59.3-173.4
			c9.8-24.9,18.8-51.1,31.3-74.9c6.3-12,13.7-25.6,25.6-32.6c15-8.9,43-11.4,59.5-6.2c7.3,2.3,16.1,4.8,22,9.9
			c20.2,17.9,24,53.8,28.8,78.8c0.8,4.1,2.2,8,2.9,12c3.4,22.4,4.9,45.1,6.9,67.7l7.8,107.1l1.7,66.6l4.7,414.1
			c-0.1,31.9-3.5,63.4-1.8,95.3c26.2-10.5,53.8-18.7,80.7-27.4l169.2-50l35-9.4c8.3-2.5,17.2-5.9,25.8-7.2c10.8-1.6,21.8-0.6,32,3.1
			c5.2,1.9,8.6,4.3,11,9.3c-0.6,4.7-2.8,7.5-7,9.8c-15.4,8.6-34.5,14.3-51.1,20.2l-75.8,26.8l-169.3,65.5l-32.7,13.6
			c-6.2,2.6-12.6,4.5-17.8,9.1c-1.2,6.6,0.3,14,0.9,20.7l2.4,36.2l2.6,80.7l69.2-18.1l95.7-19.9c17.5-3.8,35.6-11.1,53.5-11.5
			c12.7-0.2,26.4,1.6,35.9,10.7c1.3,3.8,1.5,4.5,0.8,8.4c-11.6,16.1-97.3,37.4-121.2,44.4l-38.8,12.3l-74.8,27.6
			c-2.8,0.1-5.7-0.5-8,1.1c-1.6,1.2-2.9,1.4-4.9,1.8c-3.5,0.7-5.4,2.4-8,4.7c-4,7-1.5,24.4-1.4,32.6l2.2,84.1
			c0.4,7.6,1.9,15.1,2.2,22.7l5.8,210.1l3.2,46.6l1.1,63.9l3.2,85.2c0.2,17,0.2,35.9-2.1,52.7c-0.6,4.1-1.9,7.8-2.2,12l1.1,1.7
			c0,2.2,0.5,2.4-1.1,4c0,4.6,1.3,13.6-1.1,17.2c0.1,2.1,0.1,3.3,1.1,5.2l-1.1,1.7l0,12.1c-4.9,4.7-12.3,3.6-18.5,3.5
			c-4.7-0.1-8.1-0.4-12.4-2.4c0.1-2.6,0.9-6.5,0.1-8.9c-1-3.3-3.2-5.8-3.6-9.4c-0.3-3.5,0.5-7.4,0.4-11l0.2-1.2
			c0.4-2.7-0.2-7.4-0.6-10.2l-3.7-25.5c-0.8-4.4-2.6-8.3-3.2-12.8l-4.1-43c-0.9-7.2-2.8-14.3-3.6-21.5l-2.3-32.4
			c-0.8-7.1-2.9-14.1-3.6-21.2l-1.8-30.4l-7.6-68.2c-1.5-16.1-0.5-32.4-4.7-48.2c-2.9-10.9-1-24.5-1.9-35.9
			c-0.8-9.5-3.2-18.8-3.9-28.3l-4.5-62c-1-16-1.4-32.3-3.9-48.2c-1.9-12-1.3-25.1-1.8-37.3c-0.6-14.9-2.1-29.6-4.1-44.4
			c-0.6-4.9,0.2-9.7-2.4-13.9c-3.4-0.1-5,0.4-8,1.8c-7.9,3.7-15.3,5.1-23.5,7.5c-14.7,4.4-31.3,3.8-46.5,3.6l-1.7-1.1
			c-2.7,0-3.4,0.4-5.7-1.1c-2.7,0-3.4,0.4-5.7-1.1c-2.5,0-6.9,0.2-9.3-0.5l1.4-0.7l0.7,2c-8.7-2.8-21.9-9.6-25.8-18.4
			c-1.3-2.9-1.3-8,0.1-10.8c6.8-14.2,34.3-20.9,48.3-26.6l41.6-16.8l22.6-8.4c1.2-0.5,5-1.5,5.6-2.2c1.5-1.7,0.4-15.8-0.2-18.2
			c-2.6-10.5-1.7-21.7-2-32.5c-0.2-5.9-1.1-11.8-1.2-17.7c-0.1-5.7,0.9-11.5,0.9-17.3l-1.8-39.4c-9.3,1.6-18.8,8.1-28.1,10.9
			c-27.7,8.4-70.8,10.4-95.6-7.1c-4.4-3.2-9.8-8.9-10.5-14.6c-0.6-5.1,2.3-9.9,5.5-13.6c12.1-13.7,31.3-13,47.3-18.2l64.1-24
			c2.7-1,12.6-3.6,14.3-5.4c0.5-0.5,0.1-20,0.1-22l-3.7-100.3l-2.3-31.5l-6-237.3l-3.8-104.6l-1.7-89.3l-3.1-68l-2-63.2
			c-0.6-8.7-0.6-17.4-3.2-25.8l-2.1-1.5c-6.8,6.3-21.6,57.5-25.3,68.8l-45.4,145.1l-24.5,86.6l-12.1,46.4L1272.4,752l-38.8,151.5
			c-6.8,23.5-12.9,47.3-22.7,70c-3.4,7.9-6.9,16.2-12,23.2c-12.9,17.8-36.7,22.9-57.7,22.2c-12.8-0.4-23-3.7-34.8-8.4
			c-4.9-2-8.2-6-11.8-9.6c-9.6-9.6-13.9-27.7-17.5-40.4l-16.1-66.7l-36.4-177.2l-5.3-26.4c-0.6-3.8-0.4-8.8-1.7-12.4
			c-1.1-3-2.8-5.6-5.8-6.5l-27.5,725l-6.2,0.9c-3,1.4-1.2,6.9-2.3,10l-0.6,1.4l1.1,1.7c-1.7,2.6-1.1,5-1.1,8
			c-3,4.4,0.7,10.7-1.1,14.9c-1.8,4.1-2.3,3.1-2.3,8c-4.8,3.6-16.1,0.6-22.4,2.2c-2.5,0.6-4.6-0.5-7.1-1.2c-3.1-5.2-3.4-13.6-2-19.4
			l0.5-1.6c-0.9-2.4-2.2-5.2-1.9-7.8l0.2-1.2c-0.1-4.9,0.3-11-2.2-15.1L929,1397.1z"/>
	</g>
</g>
</svg>
