<?xml version="1.0" encoding="utf-8"?>
<!-- Generator: Adobe Illustrator 28.0.0, SVG Export Plug-In . SVG Version: 6.00 Build 0)  -->
<svg version="1.1" id="Lager_1" xmlns="http://www.w3.org/2000/svg" xmlns:xlink="http://www.w3.org/1999/xlink" x="0px" y="0px"
	 viewBox="0 0 518 518" style="enable-background:new 0 0 518 518;" xml:space="preserve">
<style type="text/css">
	.st0{fill:#AA0D0C;}
	.st1{fill:#AA1917;}
</style>
<g>
	<path class="st0" d="M191,345.4h1.7c0.6,0.9,0.5,2.2,0.5,3.3v0.3c-0.1,0.6,0.2,1.2,0.4,1.7l-0.1,0.4c-0.3,1.3-0.3,3.1,0.4,4.3
		c0.5,0.2,1,0.4,1.6,0.3c1.4-0.4,3.9,0.3,4.9-0.5c0-1.1,0.1-0.9,0.5-1.8s-0.4-2.3,0.3-3.3c0-0.7-0.1-1.2,0.3-1.8l-0.3-0.4l0.1-0.3
		c0.2-0.7-0.2-1.9,0.5-2.2l1.4-0.2c0,3.1,0,6.3-0.2,9.5c-0.1,1.5-0.5,2.9-0.6,4.4c-0.2,2.2-0.2,4.5-0.7,6.7
		c-0.2,1.1-0.5,3.1-1.5,3.6c-1.9,0.9-4.2,0.5-6.1,0.1c-0.4-0.5-0.9-1-1.1-1.7c-0.4-1.3-0.4-2.7-0.6-4.1
		C191.5,357.7,191.3,351.5,191,345.4z"/>
	<path class="st0" d="M286.9,317.1l0.2-0.1c0.5,0.1,1,0.1,1.6,0.1c0.5,0.3,0.7,0.3,1.3,0.3c0.5,0.3,0.7,0.3,1.3,0.3l0.4,0.3
		c3.4,0,7,0.2,10.2-0.8c1.8-0.5,3.4-0.8,5.2-1.7c0.7-0.3,1-0.4,1.8-0.4c0.6,0.9,0.4,2,0.5,3.1c0.4,3.3,0.8,6.5,0.9,9.8
		c0.1,2.7,0,5.6,0.4,8.2c0.6,3.5,0.7,7.1,0.9,10.6l1,13.7c0.2,2.1,0.7,4.1,0.9,6.2c0.2,2.5-0.2,5.5,0.4,7.9c0.9,3.5,0.7,7.1,1,10.6
		l1.7,15.1l0.4,6.7c0.2,1.6,0.6,3.1,0.8,4.7l0.5,7.2c0.2,1.6,0.6,3.2,0.8,4.7l0.9,9.5c0.1,1,0.5,1.9,0.7,2.8l0.8,5.6
		c0.1,0.6,0.2,1.7,0.1,2.2v0.3c0,0.8-0.2,1.6-0.1,2.4s0.6,1.4,0.8,2.1c0.2,0.5,0,1.4,0,2c0.9,0.5,1.7,0.5,2.7,0.5
		c1.4,0,3,0.3,4.1-0.8v-2.7l0.3-0.4c-0.2-0.4-0.2-0.7-0.3-1.1c0.5-0.8,0.3-2.8,0.3-3.8c-1.3-2.9,0.1-3.7,0.1-4.2l-0.1,2.9
		c0.1-0.9-1-1.8-0.8-2.7c0.5-3.7,0.2-7.9,0.2-11.6l-1.1-18.6l0.1-14.1l0.2-10.4l-2-46.4c-0.1-1.7-0.3-3.5-0.4-5.2l-0.2-18.5
		c0-1.8-0.2-5.7,0.7-7.3c0.6-0.5,1.7-0.7,2.5-0.8c0.4-0.1,0.7-0.1,1.1-0.4c0.5-0.4,1.1-0.2,1.8-0.3c-1.3,0.6-2.7,1.1-3.8,2
		c-0.7,2.3,0,6.1,0.1,8.5l0.4,12l1,27.3l1.5,45.7l1.1,27.1l0.3,11.9l-0.5,8.8c-0.2,2.3-0.1,4.3-1.6,6.3c-1.8,0.9-4.1,1.7-6.1,0.9
		c-1.1-0.4-1.8-0.9-2.3-2c-0.6-1.4-0.7-3.2-1-4.7c-1.2-6.8-1.5-13.7-2.2-20.6l-5.5-57.1l-1.7-17.4l-2-27.4c-0.3-3.4,0-7.1-0.6-10.5
		c-1.5,0.6-3.1,1.3-4.6,1.8c-5.4,1.4-11.2,1.4-16.6-0.1L286.9,317.1z"/>
	<path class="st0" d="M157,244.9c-2.7-2-5.3-4.1-7.9-6.3l-0.1-0.1c-0.7-0.6-1.5-1.5-2.1-2.2c-1.6-2-3-4.5-4.1-6.8
		c-1.6-3.4-2.4-6.7-3.4-10.4c-0.7-2.6-1.5-6.9-3.3-8.9c-0.9-0.5-1.4-0.5-2.4-0.3c-0.5,0.3-1,0.6-1.2,1.1c-0.6,1.9-0.5,4.4-1,6.4
		c-2.1,8.3-5.9,16.2-11,23.1c-1.8,2.4-3.4,5.3-5.4,7.4c-1.1,1.1-3.6,2.9-4.1,4.4c-0.2,0.6-0.1,1.3,0.2,1.8c1.1,1.6,3.5,1.6,5.1,2.2
		c1,0.4,2.1,1.2,2.9,1.9c2.1,1.8,3.2,4.1,4.4,6.5c4.5,9.1,6.4,18.7,8.1,28.6c0.4,0.9,1,2.7,1.5,3.4c1.1,1.4,2,1.7,2.5,1.8
		c0.2,0,0.4,0,0.6,0c3.1,0,5.7-2.4,5.9-5.5c0-0.8,0.1-1.7,0.1-2.6c0.1-5.7,1-10.6,1.7-17.4c0.2-4,1.6-7.4,3.9-11.6
		c5-10.3,13.2-7.1,13.6-11.5C161.6,247.5,158.9,246.3,157,244.9z M145.2,251.3c-2.1,2.3-4,5.1-5.3,8.1c-0.8,1.9-1.5,3.9-2.1,5.9
		c-0.5,1.6-0.3,3.2-1.4,4.4l-0.8-0.2c-0.9-0.8-1.4-3.1-2-4.3c-1.2-2.5-2.9-5.5-4.6-7.5c-1.7-2-3.7-3-5.7-4.4
		c-0.6-0.4-0.7-1.2-0.3-1.7c1.6-2.2,3.6-3.7,5.3-5.8c2.5-3.1,4.1-6.3,6-9.8l0.5-0.1l0.4,0.5c1.8,3.2,4,5.2,6.6,7.5
		c1.5,1.4,2,1.5,4.3,3.1c0,0,1,0.8,1,0.9C147.7,249.3,146.1,250.4,145.2,251.3z M150.6,240.4l2.5,2.5
		C152.3,242.1,151.4,241.2,150.6,240.4z"/>
	<path class="st0" d="M191,345.4c-0.7-7.5-0.4-15.4-0.5-22.9l-0.1-32.7l2-82.1l2-48.6l1.2-24.5c0.2-3.4,0-7.1,0.7-10.3l0.5-2.4
		c0.6-0.8,1.4-1.7,2.3-2.1c3.3-1.6,8.4-1.9,11.9-0.7c2.1,0.7,3.7,1.8,4.9,3.7c1.9,3,2.5,6.5,3.6,9.7c3.9,12.4,6,25.6,8.6,38.3
		l8.1,41c1.2,5.9,1.5,12.6,4.1,18.1l3.4-12.4l3.3-12.4l6.3-22.9l5.5-19.2c0.6-2.1,1-4.6,1.8-6.6c0.8-1.8,1.3-4,1.7-6
		c0.7-3.2,2-6.4,3-9.6l5.2-16.8l13.1-38.3c2.2-5.5,4.1-11.3,6.9-16.5c1.4-2.6,3-5.6,5.7-7.2c3.3-2,9.5-2.5,13.1-1.4
		c1.6,0.5,3.6,1.1,4.8,2.2c4.5,3.9,5.3,11.9,6.4,17.4c0.2,0.9,0.5,1.8,0.6,2.7c0.8,4.9,1.1,10,1.5,14.9l1.7,23.6l0.4,14.7l1,91.3
		c0,7-0.8,14-0.4,21c5.8-2.3,11.9-4.1,17.8-6l37.3-11l7.7-2.1c1.8-0.5,3.8-1.3,5.7-1.6c2.4-0.4,4.8-0.1,7.1,0.7
		c1.1,0.4,1.9,0.9,2.4,2c-0.1,1-0.6,1.7-1.5,2.2c-3.4,1.9-7.6,3.2-11.3,4.5l-16.7,5.9l-37.4,14.4l-7.2,3c-1.4,0.6-2.8,1-3.9,2
		c-0.3,1.5,0.1,3.1,0.2,4.6l0.5,8l0.6,17.8l15.3-4l21.1-4.4c3.9-0.8,7.8-2.5,11.8-2.5c2.8-0.1,5.8,0.3,7.9,2.4
		c0.3,0.8,0.3,1,0.2,1.8c-2.6,3.5-21.5,8.3-26.7,9.8l-8.5,2.7l-16.5,6.1c-0.6,0-1.2-0.1-1.8,0.3c-0.4,0.3-0.6,0.3-1.1,0.4
		c-0.8,0.2-1.2,0.5-1.8,1c-0.9,1.5-0.3,5.4-0.3,7.2l0.5,18.6c0.1,1.7,0.4,3.3,0.5,5l1.3,46.4l0.7,10.3l0.2,14.1l0.7,18.8
		c0,3.7,0,7.9-0.5,11.6c-0.1,0.9-0.4,1.7-0.5,2.7l0.3,0.4c0,0.5,1,0.3,0.6,0.7c0,1,1.2,2.9,0.6,3.7c0,0.5-0.9,1.2-0.6,1.6l0,0
		l-0.4,3c-1.1,1-3.5,0.7-4.9,0.7c-1,0-1.8-0.1-2.7-0.5c0-0.6,0.2-1.4,0-2c-0.2-0.7-0.7-1.3-0.8-2.1c-0.1-0.8,0.1-1.6,0.1-2.4v-0.3
		c0.1-0.6-0.1-1.6-0.1-2.2l-0.8-5.6c-0.2-1-0.6-1.8-0.7-2.8l-0.9-9.5c-0.2-1.6-0.6-3.1-0.8-4.7l-0.5-7.2c-0.2-1.6-0.6-3.1-0.8-4.7
		l-0.4-6.7l-1.7-15.1c-0.3-3.5-0.1-7.1-1-10.6c-0.6-2.4-0.2-5.4-0.4-7.9c-0.2-2.1-0.7-4.1-0.9-6.2l-1-13.7
		c-0.2-3.5-0.3-7.1-0.9-10.6c-0.4-2.7-0.3-5.5-0.4-8.2c-0.1-3.3-0.5-6.5-0.9-9.8c-0.1-1.1,0-2.1-0.5-3.1c-0.8,0-1.1,0.1-1.8,0.4
		c-1.7,0.8-3.4,1.1-5.2,1.7c-1.4,0.4-2.9,0.6-4.3,0.7c-0.6,0-2.1,0.2-3.6,0.1c-0.3,0-0.7-0.1-1.3-0.1c-0.7-0.1-1-0.1-1.9-0.2
		c-1.6-0.2-1.6-0.1-2.4-0.3c-0.6-0.2-2-0.4-2-0.4c-1.9-0.6-4.3-1.8-5.2-3.8c-0.3-0.6-0.3-1.8,0-2.4c1.5-3.1,7.6-4.6,10.7-5.9
		l9.2-3.7l5-1.8c0.3-0.1,1.1-0.3,1.2-0.5c0.3-0.4,0.1-3.5,0-4c-0.6-2.3-0.4-4.8-0.4-7.2c0-1.3-0.2-2.6-0.3-3.9
		c0-1.3,0.2-2.5,0.2-3.8l-0.4-8.7c-2,0.3-4.1,1.8-6.2,2.4c-6.1,1.9-15.6,2.3-21.1-1.6c-1-0.7-2.2-2-2.3-3.2c-0.1-1.1,0.5-2.2,1.2-3
		c2.7-3,6.9-2.9,10.4-4l14.1-5.3c0.6-0.2,2.8-0.8,3.1-1.2c0.1-0.1,0-4.4,0-4.8l-0.8-22.1l-0.5-6.9l-1.3-52.3l-0.8-23.1l-0.4-19.7
		l-0.7-15l-0.4-13.9c-0.1-1.9-0.1-3.8-0.7-5.7l-0.5-0.3c-1.5,1.4-4.8,12.7-5.6,15.2l-10,32l-5.4,19.1L276,168l-9.2,35.1l-8.6,33.4
		c-1.5,5.2-2.8,10.4-5,15.4c-0.8,1.8-1.5,3.6-2.6,5.1c-2.9,3.9-8.1,5-12.7,4.9c-2.8-0.1-5.1-0.8-7.7-1.9c-1.1-0.4-1.8-1.3-2.6-2.1
		c-2.1-2.1-3.1-6.1-3.9-8.9l-3.6-14.7l-8-39.1l-1.2-5.8c-0.1-0.8-0.1-1.9-0.4-2.7c-0.2-0.7-0.6-1.2-1.3-1.4l-6.1,159.9l-1.4,0.2
		c-0.7,0.3-0.3,1.5-0.5,2.2l-0.1,0.3l0.3,0.4c-0.4,0.6-0.3,1.1-0.3,1.8c-0.7,1,0.1,2.4-0.3,3.3c-0.4,0.9-0.5,0.7-0.5,1.8
		c-1.1,0.8-3.6,0.1-4.9,0.5c-0.6,0.1-1-0.1-1.6-0.3c-0.7-1.1-0.8-3-0.4-4.3l0.1-0.4c-0.2-0.5-0.5-1.1-0.4-1.7v-0.3
		c0-1.1,0.1-2.4-0.5-3.3L191,345.4z"/>
</g>
<path class="st1" d="M284.3,316.4c1,0.3,0.8,0.7,3.3,1.4c1.1,0.3,2.3,0.5,3.5,0.5c6.6-0.1,4.2-0.4,6.2-1"/>
</svg>
